# xmcd CD database file
#
# Track frame offsets:
#	150
#	21969
#	41824
#	65899
#	83050
#	105658
#	141763
#	154151
#	173027
#	189942
#	219206
#	239085
#
# Disc length: 3521 seconds
#
# Revision: 0
# Processed by: cddbd v1.5.2PL0 Copyright (c) Steve Scherf et al.
# Submitted via: CDex 1.70beta2
#
DISCID=a50dbf0c
DTITLE=Chihiro Yamanaka - Reminiscence
DYEAR=2012
DGENRE=Jazz
TTITLE0=Rain, RainAnd Rain
TTITLE1=Soul Ssearchin'
TTITLE2=(They LongTo Be) Close To You 
TTITLE3=Dead Meat
TTITLE4=Ele E Ela
TTITLE5=This Masquerade
TTITLE6=She Did It Again
TTITLE7=You've Got A Friend/Central Park West
TTITLE8=La Samba des Prophetes
TTITLE9=Can't Take My Eyes Off Of You
TTITLE10=Friday Night At THe Cadillac Club
TTITLE11=Sunny
EXTD=YEAR: 2012
EXTT0=
EXTT1=
EXTT2=
EXTT3=
EXTT4=
EXTT5=
EXTT6=
EXTT7=
EXTT8=
EXTT9=
EXTT10=
EXTT11=
PLAYORDER=
